<svg width="24" height="24" viewBox="0 0 24 24" xmlns="http://www.w3.org/2000/svg">
<path fill-rule="evenodd" clip-rule="evenodd" d="M16.8 20C16.3582 20 16 19.6418 16 19.2V6.8C16 6.35817 16.3582 6 16.8 6L19.2 6C19.6418 6 20 6.35817 20 6.8L20 19.2C20 19.6418 19.6418 20 19.2 20H16.8ZM10.8 20C10.3582 20 10 19.6418 10 19.2V9.8C10 9.35817 10.3582 9 10.8 9H13.2C13.6418 9 14 9.35817 14 9.8V19.2C14 19.6418 13.6418 20 13.2 20H10.8ZM4 19.2C4 19.6418 4.35817 20 4.8 20H7.2C7.64183 20 8 19.6418 8 19.2V15.8C8 15.3582 7.64183 15 7.2 15H4.8C4.35817 15 4 15.3582 4 15.8L4 19.2Z" />
</svg>
