<svg width="24" height="24" viewBox="0 0 24 24" xmlns="http://www.w3.org/2000/svg">
<path fill-rule="evenodd" clip-rule="evenodd" d="M4 7.5C4 5.29086 5.79086 3.5 8 3.5H16.5C18.433 3.5 20 5.067 20 7L23.0858 10.0858C23.8668 10.8668 23.8668 12.1332 23.0858 12.9142L20 16C20 17.933 18.433 19.5 16.5 19.5H8C5.79086 19.5 4 17.7091 4 15.5V7.5ZM11.3053 17.6176H12.183V16.4902C14.3499 16.3927 15.5294 15.0704 15.5294 13.5671C15.5294 11.5251 13.8464 11.0542 12.4221 10.6555C12.3414 10.633 12.2616 10.6106 12.183 10.5883V8.43074C12.567 8.56993 12.8276 8.89008 12.8825 9.40511H15.3923C15.2688 7.63732 14.0619 6.66295 12.183 6.50984V5.38235H11.3053V6.50984C9.44005 6.63512 8 7.66516 8 9.40511C8 11.5247 9.72874 11.9813 11.1717 12.3625L11.3053 12.3978V14.5971C10.839 14.444 10.5647 14.096 10.5098 13.5253H8.01371C8.08229 15.3209 9.44005 16.3092 11.3053 16.4762V17.6176ZM13.0745 13.6506C13.0745 14.1656 12.7316 14.5414 12.183 14.6389V12.6623C12.7179 12.8711 13.0745 13.1495 13.0745 13.6506ZM10.4824 9.29375C10.4824 8.75089 10.7978 8.44466 11.3053 8.36114V10.296C10.8115 10.0732 10.4824 9.78094 10.4824 9.29375ZM22.8145 12.1998L19.0918 16L18.0773 14.9732L20.7405 12.2545H16V10.7455H20.7405L18.0773 8.03125L19.0918 7L22.8145 10.8002C23.1954 11.189 23.1954 11.811 22.8145 12.1998Z" />
</svg>
