<svg width="24" height="24" viewBox="0 0 24 24" xmlns="http://www.w3.org/2000/svg">
<path d="M6.76267 19.2H4.88889C4.65314 19.2 4.42705 19.2948 4.26035 19.4636C4.09365 19.6324 4 19.8613 4 20.1C4 20.3387 4.09365 20.5676 4.26035 20.7364C4.42705 20.9052 4.65314 21 4.88889 21H19.1111C19.3469 21 19.573 20.9052 19.7397 20.7364C19.9064 20.5676 20 20.3387 20 20.1C20 19.8613 19.9064 19.6324 19.7397 19.4636C19.573 19.2948 19.3469 19.2 19.1111 19.2H17.2373C17.0178 16.7034 16.2853 12.351 13.8364 11.1C16.1156 9.8193 16.9058 6.771 17.1822 4.8H19.1111C19.3469 4.8 19.573 4.70518 19.7397 4.5364C19.9064 4.36761 20 4.13869 20 3.9C20 3.66131 19.9064 3.43239 19.7397 3.2636C19.573 3.09482 19.3469 3 19.1111 3H4.88889C4.65314 3 4.42705 3.09482 4.26035 3.2636C4.09365 3.43239 4 3.66131 4 3.9C4 4.13869 4.09365 4.36761 4.26035 4.5364C4.42705 4.70518 4.65314 4.8 4.88889 4.8H6.81778C7.09422 6.771 7.88444 9.8193 10.1636 11.1C7.71467 12.351 6.98222 16.7034 6.76267 19.2ZM9.33333 16.14C9.33333 15.06 12 12.9 12 12.9C12 12.9 14.6667 15.06 14.6667 16.14V19.2H9.33333V16.14Z" />
</svg>
