<svg width="24" height="24" viewBox="0 0 24 24" fill="none" xmlns="http://www.w3.org/2000/svg">
<g clip-path="url(#clip0)">
<path d="M12 2C13.9778 2 15.9112 2.58649 17.5557 3.6853C19.2002 4.78412 20.4819 6.3459 21.2388 8.17317C21.9957 10.0004 22.1937 12.0111 21.8079 13.9509C21.422 15.8907 20.4696 17.6725 19.0711 19.0711C17.6725 20.4696 15.8907 21.422 13.9509 21.8079C12.0111 22.1937 10.0004 21.9957 8.17317 21.2388C6.3459 20.4819 4.78412 19.2002 3.6853 17.5557C2.58649 15.9112 2 13.9778 2 12C2 9.34783 3.05357 6.8043 4.92893 4.92893C6.8043 3.05357 9.34783 2 12 2V2Z" fill="#F5AC37"/>
<path d="M12.4094 12.5318H15.5912C15.6588 12.5318 15.6912 12.5318 15.6959 12.4518C15.7219 12.16 15.7219 11.8665 15.6959 11.5747C15.6959 11.5159 15.6647 11.4947 15.5965 11.4947H9.26294C9.1847 11.4947 9.16353 11.5182 9.16353 11.5841V12.4235C9.16353 12.5318 9.16353 12.5318 9.28882 12.5318H12.4094ZM15.3406 10.5129C15.3451 10.5025 15.3474 10.4913 15.3474 10.48C15.3474 10.4687 15.3451 10.4575 15.3406 10.4471C15.2872 10.3422 15.2237 10.2427 15.1512 10.15C15.0398 9.98886 14.9097 9.84155 14.7635 9.71118C14.6929 9.63023 14.612 9.55885 14.5229 9.49883C14.0592 9.14639 13.523 8.90145 12.9529 8.78177C12.6602 8.72283 12.3621 8.69444 12.0635 8.69706H9.25235C9.17412 8.69706 9.16353 8.7253 9.16353 8.78647V10.4612C9.16353 10.5318 9.16353 10.5506 9.26294 10.5506H15.3018C15.3018 10.5506 15.3541 10.5412 15.3647 10.5129H15.3388H15.3406ZM15.3406 13.5129C15.2516 13.5041 15.1619 13.5041 15.0729 13.5129H9.26823C9.19 13.5129 9.16353 13.5129 9.16353 13.6076V15.2447C9.16353 15.32 9.16353 15.3394 9.26823 15.3394H11.9476C12.0754 15.3481 12.2037 15.3402 12.3294 15.3159C12.7174 15.2915 13.1004 15.2153 13.4682 15.0894C13.6003 15.0481 13.7281 14.9943 13.85 14.9288H13.8865C14.4987 14.6489 15.0088 14.1859 15.3465 13.6035C15.3465 13.6035 15.3829 13.5324 15.3418 13.5135L15.3406 13.5129ZM8.11294 16.1876V13.5788C8.11294 13.52 8.11294 13.5082 8.02941 13.5082H6.89235C6.82941 13.5082 6.80353 13.5082 6.80353 13.4329V12.5365H8.01765C8.08529 12.5365 8.11176 12.5365 8.11176 12.4565V11.5694C8.11176 11.5106 8.11176 11.4988 8.02823 11.4988H6.89235C6.82941 11.4988 6.80353 11.4988 6.80353 11.4235V10.5935C6.80353 10.5418 6.80353 10.5276 6.88706 10.5276H8.01235C8.09059 10.5276 8.11176 10.5276 8.11176 10.4382V7.89589C8.11176 7.82059 8.11176 7.80118 8.21647 7.80118H12.1412C12.4253 7.81116 12.7084 7.83945 12.9888 7.88589C13.5604 7.98045 14.1133 8.1651 14.6271 8.43295C14.9592 8.60835 15.2686 8.82388 15.5482 9.07471C15.7534 9.26646 15.9408 9.47633 16.1082 9.70177C16.2725 9.92594 16.4106 10.1681 16.52 10.4235C16.5287 10.4568 16.5496 10.4856 16.5786 10.5041C16.6077 10.5225 16.6426 10.5293 16.6765 10.5229H17.6129C17.7306 10.5229 17.7306 10.5229 17.7382 10.6271V11.4006C17.7382 11.4759 17.7071 11.4953 17.6206 11.4953H16.8982C16.8253 11.4953 16.8041 11.4953 16.8094 11.58C16.838 11.8669 16.838 12.156 16.8094 12.4429C16.8094 12.5229 16.8094 12.5324 16.9094 12.5324H17.7329C17.7694 12.5747 17.7329 12.6171 17.7329 12.66C17.7382 12.7148 17.7382 12.7699 17.7329 12.8247V13.3959C17.7329 13.4759 17.7071 13.5 17.6282 13.5H16.6412C16.6093 13.4934 16.5761 13.4989 16.5481 13.5154C16.52 13.532 16.4991 13.5583 16.4894 13.5894C16.2453 14.1526 15.868 14.648 15.39 15.0329C15.211 15.1783 15.024 15.3136 14.83 15.4382C14.6206 15.5471 14.4182 15.66 14.2018 15.7494C13.8035 15.9101 13.3895 16.0284 12.9665 16.1024C12.5616 16.1673 12.1518 16.1972 11.7418 16.1918H8.11059V16.1871L8.11294 16.1876Z" fill="#FEFEFD"/>
</g>
<defs>
<clipPath id="clip0">
<rect width="20" height="20" fill="white" transform="translate(2 2)"/>
</clipPath>
</defs>
</svg>
