<svg width="56" height="56" viewBox="0 0 56 56" fill="none" xmlns="http://www.w3.org/2000/svg">
<path d="M13.24 18.214c8.152-8.208 21.368-8.208 29.52 0l.981.988c.408.41.408 1.075 0 1.486l-3.356 3.379a.52.52 0 0 1-.738 0l-1.35-1.36a14.493 14.493 0 0 0-20.594 0l-1.446 1.456a.52.52 0 0 1-.738 0l-3.356-3.379a1.056 1.056 0 0 1 0-1.486l1.077-1.084ZM49.7 25.202l2.987 3.008c.408.41.408 1.075 0 1.486L39.22 43.256c-.408.41-1.069.41-1.476 0l-9.56-9.624a.26.26 0 0 0-.368 0l-9.56 9.624c-.407.41-1.068.41-1.475 0L3.312 29.696a1.056 1.056 0 0 1 0-1.487l2.987-3.007a1.039 1.039 0 0 1 1.476 0l9.56 9.625a.26.26 0 0 0 .368 0l9.559-9.625a1.039 1.039 0 0 1 1.476 0l9.559 9.625a.26.26 0 0 0 .369 0l9.559-9.625a1.039 1.039 0 0 1 1.476 0Z" fill="#3B99FC"/>
</svg>
