<svg width="24" height="24" viewBox="0 0 24 24" xmlns="http://www.w3.org/2000/svg">
<path fill-rule="evenodd" clip-rule="evenodd" d="M4 7.5C4 5.29086 5.79086 3.5 8 3.5H16C18.2091 3.5 20 5.29086 20 7.5V9.5V10.7455L15.7595 10.7455L18.4227 8.02679L17.4082 7L13.6855 10.8002C13.3046 11.189 13.3046 11.811 13.6855 12.1998L17.4082 16L18.4227 14.9688L15.7595 12.2545L20 12.2545V15.5C20 17.7091 18.2091 19.5 16 19.5H8C5.79086 19.5 4 17.7091 4 15.5V7.5ZM11.3053 17.6176H12.183V16.4902C13.7462 16.4199 14.7955 15.7121 15.2589 14.7589L12.7075 12.2075C12.3168 11.8168 12.317 11.1834 12.7078 10.7929L12.752 10.7488C12.6411 10.7168 12.5309 10.686 12.4221 10.6556C12.3415 10.633 12.2616 10.6106 12.183 10.5883V8.43074C12.567 8.56993 12.8276 8.89008 12.8825 9.40511H14.0971L15.1554 8.3479C14.7015 7.24612 13.6459 6.62905 12.183 6.50984V5.38235H11.3053V6.50984C9.44005 6.63512 8 7.66516 8 9.40511C8 11.5247 9.72874 11.9813 11.1717 12.3625L11.3053 12.3978V14.5971C10.839 14.444 10.5647 14.096 10.5098 13.5253H8.01371C8.08229 15.3209 9.44005 16.3092 11.3053 16.4762V17.6176ZM13.0745 13.6506C13.0745 14.1656 12.7316 14.5414 12.183 14.6389V12.6623C12.7179 12.8711 13.0745 13.1495 13.0745 13.6506ZM10.4824 9.29375C10.4824 8.75089 10.7978 8.44466 11.3053 8.36114V10.296C10.8115 10.0732 10.4824 9.78094 10.4824 9.29375Z" />
</svg>
