<svg width="24" height="24" viewBox="0 0 24 24" xmlns="http://www.w3.org/2000/svg">
<path fill-rule="evenodd" clip-rule="evenodd" d="M4 4.8C4 4.35817 4.35817 4 4.8 4H13.5125C13.9543 4 14.3125 4.35817 14.3125 4.8V6.95C14.3125 7.39183 13.9543 7.75 13.5125 7.75H4.8C4.35817 7.75 4 7.39183 4 6.95V4.8ZM9.625 10.425C9.625 9.98316 9.98317 9.62499 10.425 9.62499H19.1375C19.5793 9.62499 19.9375 9.98316 19.9375 10.425V12.575C19.9375 13.0168 19.5793 13.375 19.1375 13.375H10.425C9.98317 13.375 9.625 13.0168 9.625 12.575V10.425ZM4.8 15.25C4.35817 15.25 4 15.6082 4 16.05V18.2C4 18.6418 4.35817 19 4.8 19H19.1375C19.5793 19 19.9375 18.6418 19.9375 18.2V16.05C19.9375 15.6082 19.5793 15.25 19.1375 15.25H4.8ZM16.1875 4.8C16.1875 4.35817 16.5457 4 16.9875 4H19.1375C19.5793 4 19.9375 4.35817 19.9375 4.8V6.95C19.9375 7.39183 19.5793 7.75 19.1375 7.75H16.9875C16.5457 7.75 16.1875 7.39183 16.1875 6.95V4.8ZM4.8 9.62499C4.35817 9.62499 4 9.98316 4 10.425V12.575C4 13.0168 4.35817 13.375 4.8 13.375H6.95C7.39183 13.375 7.75 13.0168 7.75 12.575V10.425C7.75 9.98316 7.39183 9.62499 6.95 9.62499H4.8Z" />
</svg>
