<svg width="24" height="24" viewBox="0 0 24 24" fill="none" xmlns="http://www.w3.org/2000/svg">
<path d="M12 22C17.5417 22 22 17.5417 22 12C22 6.4583 17.5417 2 12 2C6.4583 2 2 6.4583 2 12C2 17.5417 6.4583 22 12 22Z" fill="white"/>
<path d="M15 13.473C15 12.0208 14.0597 11.5228 12.1791 11.3154C10.8358 11.1494 10.5671 10.8175 10.5671 10.2365C10.5671 9.65553 11.0149 9.28218 11.9104 9.28218C12.7164 9.28218 13.1642 9.53115 13.3881 10.1535C13.4329 10.278 13.5672 10.361 13.7015 10.361H14.4179C14.597 10.361 14.7313 10.2365 14.7313 10.0706V10.0291C14.5522 9.11618 13.7462 8.41082 12.7164 8.32786V7.33202C12.7164 7.16601 12.5821 7.04153 12.3582 7H11.6866C11.5074 7 11.3731 7.12448 11.3283 7.33202V8.28634C9.98501 8.45234 9.13433 9.28218 9.13433 10.3196C9.13433 11.6888 10.0298 12.2282 11.9104 12.4357C13.1642 12.6432 13.5672 12.8921 13.5672 13.5561C13.5672 14.22 12.9403 14.6764 12.0896 14.6764C10.9253 14.6764 10.5223 14.2199 10.388 13.5975C10.3433 13.4316 10.209 13.3485 10.0746 13.3485H9.31336C9.13433 13.3485 9 13.473 9 13.639V13.6805C9.17903 14.7178 9.89549 15.4647 11.3731 15.6722V16.6681C11.3731 16.834 11.5074 16.9585 11.7313 17H12.4029C12.5821 17 12.7164 16.8755 12.7612 16.6681V15.6722C14.1045 15.4647 15 14.5933 15 13.473Z" fill="#1E1E1E"/>
<path d="M9.73946 18.474C6.28218 17.1793 4.50917 13.1561 5.79465 9.59533C6.45951 7.65312 7.92221 6.17338 9.73946 5.47974C9.9168 5.38729 10.0054 5.24856 10.0054 5.01727V4.36991C10.0054 4.1849 9.9168 4.04617 9.73946 4C9.69511 4 9.60649 4 9.56213 4.04617C5.35137 5.43346 3.04647 10.1041 4.3762 14.4971C5.17404 17.0867 7.08001 19.0752 9.56213 19.9076C9.73946 20 9.9168 19.9076 9.96105 19.7225C10.0054 19.6764 10.0054 19.6301 10.0054 19.5376V18.8902C10.0054 18.7514 9.87244 18.5665 9.73946 18.474ZM14.4379 4.04617C14.2605 3.95372 14.0832 4.04617 14.0389 4.23118C13.9946 4.27746 13.9946 4.32363 13.9946 4.41619V5.06355C13.9946 5.24856 14.1276 5.43346 14.2605 5.52602C17.7178 6.82075 19.4908 10.8439 18.2054 14.4047C17.5405 16.3469 16.0778 17.8266 14.2605 18.5203C14.0832 18.6127 13.9946 18.7514 13.9946 18.9827V19.6301C13.9946 19.8151 14.0832 19.9538 14.2605 20C14.3049 20 14.3935 20 14.4379 19.9538C18.6486 18.5665 20.9535 13.8959 19.6238 9.50288C18.826 6.86703 16.8756 4.87854 14.4379 4.04617Z" fill="#1E1E1E"/>
</svg>
