<svg width="24" height="24" viewBox="0 0 24 24" fill="none" xmlns="http://www.w3.org/2000/svg">
<g clip-path="url(#clip0)">
<path d="M18.3079 6.19735L17.7587 6.7465C19.0691 8.17947 19.7957 10.0509 19.7957 11.9927C19.7957 13.9345 19.0691 15.8059 17.7587 17.2389L18.3079 17.7881C19.7651 16.2074 20.5742 14.1362 20.5742 11.9863C20.5742 9.83639 19.7651 7.76521 18.3079 6.18454V6.19735Z" fill="#5A5564"/>
<path d="M6.75929 6.24491C8.19226 4.93455 10.0637 4.20788 12.0055 4.20788C13.9473 4.20788 15.8187 4.93455 17.2517 6.24491L17.8008 5.69576C16.2202 4.2385 14.149 3.42944 11.9991 3.42944C9.84917 3.42944 7.77799 4.2385 6.19733 5.69576L6.75929 6.24491Z" fill="#5A5564"/>
<path d="M6.24494 17.2444C4.93613 15.8117 4.21042 13.9414 4.21042 12.0009C4.21042 10.0604 4.93613 8.19011 6.24494 6.75746L5.69579 6.20831C4.23853 7.78898 3.42947 9.86016 3.42947 12.0101C3.42947 14.16 4.23853 16.2312 5.69579 17.8118L6.24494 17.2444Z" fill="#5A5564"/>
<path d="M17.2444 17.7514C15.8114 19.0618 13.9399 19.7885 11.9982 19.7885C10.0564 19.7885 8.18494 19.0618 6.75197 17.7514L6.20282 18.3006C7.78349 19.7578 9.85467 20.5669 12.0046 20.5669C14.1545 20.5669 16.2257 19.7578 17.8063 18.3006L17.2444 17.7514Z" fill="#5A5564"/>
<path d="M15.4669 10.1677C15.3571 9.0218 14.3687 8.63739 13.1184 8.52024V6.94235H12.1519V8.49095C11.8975 8.49095 11.6376 8.49095 11.3795 8.49095V6.94235H10.4203V8.53122H8.45981V9.56545C8.45981 9.56545 9.1737 9.55264 9.16272 9.56545C9.29144 9.55129 9.42063 9.58765 9.52307 9.66687C9.62551 9.74609 9.6932 9.86198 9.71187 9.99013V14.3394C9.70912 14.3846 9.69733 14.4288 9.67721 14.4693C9.65709 14.5099 9.62904 14.546 9.59472 14.5755C9.56104 14.6056 9.52163 14.6286 9.47884 14.6431C9.43606 14.6575 9.3908 14.6632 9.34577 14.6597C9.35858 14.6707 8.64286 14.6597 8.64286 14.6597L8.45981 15.8148H10.402V17.4293H11.3685V15.8386H12.1409V17.4219H13.1093V15.8257C14.7421 15.7269 15.8806 15.3242 16.0234 13.7957C16.1387 12.5656 15.5603 12.0165 14.6359 11.795C15.1979 11.5186 15.5457 11.0061 15.4669 10.1677ZM14.1124 13.6054C14.1124 14.8062 12.0549 14.6689 11.3996 14.6689V12.5382C12.0549 12.54 14.1124 12.3515 14.1124 13.6054ZM13.6639 10.6033C13.6639 11.7016 11.9469 11.568 11.4014 11.568V9.63135C11.9469 9.63135 13.6639 9.45928 13.6639 10.6033Z" fill="#F09242"/>
<path d="M11.9981 22C10.0205 21.9996 8.08734 21.4129 6.44313 20.3139C4.79892 19.215 3.51748 17.6531 2.76083 15.826C2.00418 13.9988 1.8063 11.9883 2.19221 10.0486C2.57812 8.10898 3.53049 6.32732 4.92891 4.92891C6.32732 3.53049 8.10898 2.57812 10.0486 2.19221C11.9883 1.8063 13.9988 2.00418 15.826 2.76083C17.6532 3.51748 19.215 4.79892 20.3139 6.44313C21.4129 8.08734 21.9996 10.0205 22 11.9981C22.0002 13.3117 21.7417 14.6124 21.2391 15.826C20.7366 17.0395 19.9998 18.1422 19.071 19.071C18.1422 19.9998 17.0396 20.7366 15.826 21.2391C14.6124 21.7417 13.3117 22.0002 11.9981 22ZM11.9981 2.77977C10.1761 2.78121 8.39541 3.32278 6.8811 4.33603C5.36679 5.34927 4.18685 6.7887 3.49043 8.47239C2.794 10.1561 2.61235 12.0084 2.96843 13.7953C3.32451 15.5822 4.20234 17.2234 5.49097 18.5116C6.7796 19.7997 8.42117 20.6769 10.2082 21.0322C11.9953 21.3876 13.8475 21.2052 15.5309 20.5081C17.2143 19.811 18.6533 18.6305 19.666 17.1158C20.6786 15.6011 21.2195 13.8202 21.2202 11.9981C21.2207 10.7871 20.9824 9.58789 20.5191 8.46901C20.0558 7.35013 19.3765 6.33355 18.52 5.4774C17.6635 4.62125 16.6466 3.94232 15.5276 3.47944C14.4085 3.01656 13.2092 2.7788 11.9981 2.77977Z" fill="#282138"/>
</g>
<defs>
<clipPath id="clip0">
<rect width="20" height="20" fill="white" transform="translate(2 2)"/>
</clipPath>
</defs>
</svg>
